<svg id="Layer_1" data-name="Layer 1" xmlns="http://www.w3.org/2000/svg" viewBox="0 0 550 550"><defs><style>.cls-1{fill:#a77a74;}.cls-2{fill:none;stroke:#fff;stroke-miterlimit:10;stroke-width:9px;}</style></defs><title>Jomfru</title><rect class="cls-1" y="-0.5" width="550" height="550"/><path class="cls-2" d="M193.5,178.5a19.52,19.52,0,0,1,19-6c10.4,2.47,13.82,12.46,14,13q-.5,81.5-1,163"/><path class="cls-2" d="M226.16,178.49a19.52,19.52,0,0,1,19-6c10.4,2.47,13.82,12.46,14,13q-.51,81.5-1,163"/><path class="cls-2" d="M293,183.5c-3.9-8.24-11.67-13-19.46-12-9.93,1.26-14.66,11.18-15,12"/><path class="cls-2" d="M274.5,345.5c20.52-14.88,51.36-42.64,66.35-86.26,5.8-16.85,13.56-40.52,2.69-62.15-.74-1.47-13.62-26.29-33.17-25-17.05,1.08-26.82,21.18-28.7,25-10.85,22.34-4,46,.9,62.15,13.11,43.08,41.57,71.26,60.08,86.26"/></svg>
