<svg id="Layer_1" data-name="Layer 1" xmlns="http://www.w3.org/2000/svg" viewBox="0 0 600 600"><defs><style>.cls-1{fill:#44719c;}.cls-2{fill:none;stroke:#fff;stroke-miterlimit:10;stroke-width:9px;}</style></defs><title>Krebs</title><rect class="cls-1" x="-0.5" y="0.5" width="600" height="600"/><path class="cls-2" d="M420,368.5a765.41,765.41,0,0,1-76.05,13c-77.52,9.25-155.7,18.58-169.66-17-7.69-19.6,5-50.64,23.4-63,20.76-13.91,52.86-6.83,66.86,21,9.52,18.93,8.81,43.74-1.67,64"/><path class="cls-2" d="M171.67,249.26a761.73,761.73,0,0,1,76.16-13c77.61-9.25,155.89-18.58,169.88,17,7.7,19.59-5,50.64-23.44,63-20.78,13.91-52.92,6.83-66.94-21-9.54-18.93-8.83-43.74,1.67-64"/></svg>
