<svg id="Layer_1" data-name="Layer 1" xmlns="http://www.w3.org/2000/svg" viewBox="0 0 3623 3442"><defs><style>.cls-1,.cls-7{fill:#fff;}.cls-2{fill:#a77a74;}.cls-3{fill:#d9c1d8;}.cls-4{fill:#44719c;}.cls-5{fill:#8e76a6;}.cls-6{fill:none;}.cls-6,.cls-7{stroke:#fff;stroke-miterlimit:10;stroke-width:9px;}</style></defs><title>Logo</title><path class="cls-1" d="M2188.43,504.42c-33.59-30.16-143.14-120.72-304.76-124.51-176.63-4.14-296.37,98.14-327.75,126.78"/><path class="cls-1" d="M3034,1941.72c30.32-32.11,121.37-136.84,125.9-291.86,4.95-169.41-96.78-284.65-125.27-314.86"/><path class="cls-1" d="M2710.58,804.89c-12.12-42.11-55.6-172.7-185.37-253.37-141.83-88.16-291.1-57.27-331.15-47.59"/><path class="cls-1" d="M3032.67,1331.46c8.8-43.67,30.83-182-47.65-318.82C2899.26,863.16,2751.29,816.35,2710.94,805"/><path class="cls-1" d="M2724,2490.09c42.94-13.93,176.23-63.27,260.58-201.19,92.19-150.72,63.77-305.61,54.74-347.13"/><path class="cls-1" d="M1056.43,2500.56c12.56,42.33,57.49,173.64,189.32,255.32,144.07,89.26,294.8,59.06,335.23,49.57"/><path class="cls-1" d="M2202.1,2791.06c42.51,10.64,177.29,38.54,312.18-33.26,147.41-78.46,195.57-223.09,207.28-262.6"/><path class="cls-1" d="M741.79,1952.34c-9.1,44.22-32,184.5,46.26,326,85.54,154.59,234.26,206.37,274.82,219"/><path class="cls-1" d="M1556.13,497.13c-43-10-179.38-35.74-315.51,38.56-148.76,81.2-196.93,227.17-208.64,267"/><path class="cls-1" d="M737.77,1349.92c-30.24,31.71-121.06,135.14-125.23,287.89C608,1804.74,710,1918,738.53,1947.73"/><path class="cls-1" d="M1029.9,806.16c-42.14,14.44-172.72,65.23-251.22,202-85.79,149.46-51.56,300.84-41,341.39"/><path class="cls-1" d="M2711,805,1063,2497"/><path class="cls-1" d="M2194,504,1585.21,2801.87"/><path class="cls-1" d="M3033,1331,739,1948"/><path class="cls-1" d="M1556,497q323,1147,646,2294"/><path class="cls-1" d="M3039,1942,738,1350"/><path class="cls-1" d="M1030,806,2722,2495"/><path class="cls-2" d="M1030,806c8-30.43,48.22-170,190-258,153.2-95.07,309-57.92,336-51l326,1160Z"/><path class="cls-3" d="M1556,497c25.22-24.38,131.36-121.39,297.3-127.14C2044.2,363.24,2167.5,482.5,2188,503L1883,1661.08Z"/><path class="cls-4" d="M2188.63,502c25.76-7.8,170.23-48.78,318.66,33.41C2664.86,622.67,2703.41,780.36,2709,805l-823.54,862.43Q2037,1084.71,2188.63,502Z"/><path class="cls-5" d="M2709,805c31.22,7.53,172.72,45.26,264.73,186.22,100,153.23,65.69,312.27,59.27,339.78L1873.31,1667.4Z"/><path class="cls-2" d="M3033,1331c22.2,22,123.57,126.89,128.61,294.27,5.43,180.29-105,296.4-124.51,316.22L1870.15,1641.34Z"/><path class="cls-3" d="M3039,1940c9.59,35.11,42.75,172.66-29.42,319.19-87.3,177.24-260,228.18-287.58,235.81l-847.61-851.83Z"/><path class="cls-4" d="M2724,2494c-5.7,25.59-41,172.69-186.71,261-154.25,93.5-310.59,47.41-334.29,40q-164.39-574.18-328.76-1148.36Z"/><path class="cls-5" d="M2203,2795c-22.64,23.35-125.86,124.69-292.07,133-183.23,9.21-303.53-101.61-323.93-121q147.11-585.09,294.2-1170.18Q2042.11,2215.91,2203,2795Z"/><path class="cls-2" d="M1587,2807c-30.1,8.5-171.56,45-319.71-33.27C1106.61,2688.86,1060.45,2533.68,1053,2507l833.85-866.52Z"/><path class="cls-3" d="M1053,2507c-36.06-10.26-169.69-52.92-258.5-188.89-108.66-166.36-65-341.91-57.5-370.11l1156.9-307.72Z"/><path class="cls-4" d="M737,1948c-20.15-19.58-124.77-125.12-127-294.33-2.38-175.42,107-286.06,126-304.67l1165.5,300.19Z"/><path class="cls-5" d="M736,1349c-9.06-33.09-42.92-171.51,31.28-318.93C849.12,867.47,1001.36,815.24,1030,806l871.4,842.05Z"/><circle class="cls-1" cx="1885" cy="1636" r="407"/><path class="cls-6" d="M2725.38,1012.4c29-7.54,38.08-4.22,40.94.32,6.44,10.26-15.15,29.69-8.25,41.54,7.26,12.48,36.33-.58,45.16,12.4,8.6,12.64-13.16,33.61-4.43,45.44s35.4-1.75,43.38,9.88c7.83,11.41-13.19,31.2-5.48,42.42,8.07,11.74,36.65-1.88,45.26,9.5,3.75,5,4.26,15.37-10.73,39.53"/><path class="cls-6" d="M2662.13,1056.46c29-7.53,38.1-4.19,41,.36,6.46,10.27-15.13,29.7-8.22,41.57,7.27,12.5,36.35-.55,45.19,12.45,8.61,12.66-13.14,33.64-4.4,45.48s35.42-1.73,43.42,9.92c7.84,11.43-13.18,31.23-5.46,42.46,8.09,11.76,36.67-1.85,45.29,9.55,3.76,5,4.28,15.39-10.71,39.56"/><path class="cls-6" d="M2971.21,1538.75q6.9,14.7,13.79,29.41h0L2865.49,1593v25.74l94.69,18.39a42.88,42.88,0,0,1-.92,21.14c-1.79,5.79-5,11.54-7.35,13.79-17,16.14-88.59-56.65-122.27-38.61-20.34,10.9-24.84,53.87-12.87,62.51,7.32,5.29,23.54-.26,29.42-10.11,9.26-15.51-4.8-45.62-37.69-74.46"/><path class="cls-6" d="M2782.6,2252.87q-24.41-117.33-48.8-234.65"/><path class="cls-6" d="M2795.71,2124.33,2721.27,2142"/><polygon class="cls-7" points="2802.56 2208.87 2747.48 2222.24 2788.48 2271 2802.56 2208.87"/><path class="cls-6" d="M2495.41,2586.6a19.5,19.5,0,0,1-13.34,14.8c-10.22,3.14-18.23-3.74-18.65-4.12l-81.71-141"/><path class="cls-6" d="M2467.75,2603.05a19.5,19.5,0,0,1-13.34,14.8c-10.22,3.14-18.23-3.74-18.66-4.11l-81.7-141"/><path class="cls-6" d="M2439.3,2619.77a19.55,19.55,0,0,1-13.35,14.8c-10.22,3.14-18.23-3.74-18.65-4.12q-40.86-70.51-81.71-141"/><path class="cls-6" d="M2326.64,2491c-.21-.39-4.08-7.53-12.14-8a15.27,15.27,0,0,0-11.72,4.76"/><polygon class="cls-7" points="2307.39 2494.71 2299.84 2481.86 2294.56 2493.6 2307.39 2494.71"/><path class="cls-6" d="M2013.88,2659.15,1775.5,2658"/><path class="cls-6" d="M2014,2698.5l-55.74-.28a65.82,65.82,0,0,1-97,36.3c-20-12.23-27-31.39-28.74-36.92l-56.92-.28"/><path class="cls-6" d="M1396.15,2628.25a16.3,16.3,0,0,1-16.17-3.89c-6.38-6.25-4.53-14.87-4.42-15.33l71-116.18"/><path class="cls-6" d="M1372.79,2614.19a16.3,16.3,0,0,1-16.18-3.9c-6.37-6.25-4.52-14.86-4.41-15.33l71-116.17"/><path class="cls-6" d="M1327.13,2581.8c-.76,7.58,2.75,14.32,8.75,17,7.65,3.38,15.3-1.67,15.93-2.1"/><path class="cls-6" d="M1410.17,2473.89c-21.1,1.8-55.11,8.37-84.64,33.11-11.4,9.56-27.16,23.15-28.7,43.3-.11,1.38-1.58,24.68,12.94,32.21,12.66,6.57,28.32-3.6,31.32-5.55,17.39-11.3,22.7-31.21,26.13-44.84,9.19-36.47,1-68.89-5.8-87.6"/><path class="cls-6" d="M997.41,2072c1.54-.82,11.85-6.15,22.05,0,12.06,7.23,13.64,21.21,13.72,22.65.83,15.48-12.54,26.73-18.68,31.9-15.75,13.25-25.73,10.79-53.75,21.64-25.59,9.91-50.56,18.69-52.06,36.22-1,11.83,7.17,26.81,17.47,32.46,13.58,7.44,31.6-6.37,57.55-24.6,22.73-16,29.7-25.85,50.11-31.52,14.92-4.15,23.65-2.32,28.44-.75,2.53.83,22.94,7.53,24.81,24.88,1.42,13.18-8.28,28.62-21.33,29.68s-22.37-13-25.58-21.73c-5.44-14.82,1.45-28.18,2.75-30.6"/><path class="cls-6" d="M874.66,1556.43a546.94,546.94,0,0,1,8.42,54.41c5.73,55.42,11.5,111.31-14,120.87C855,1737,833,1727.6,824.35,1714.3c-9.7-15-4.28-37.79,15.73-47.47,13.62-6.58,31.31-5.79,45.65,1.91"/><path class="cls-6" d="M786.78,1732.28a542.57,542.57,0,0,1-8.42-54.48c-5.73-55.49-11.5-111.46,14-121,14.07-5.28,36.08,4.11,44.69,17.43,9.69,15,4.28,37.84-15.74,47.53-13.61,6.59-31.31,5.8-45.65-1.91"/><path class="cls-6" d="M915,1070.09l115.88,62.25"/><path class="cls-6" d="M887,1122.12l115.89,62.25"/><path class="cls-6" d="M935.31,1038.86l-62.25,115.88"/><path class="cls-6" d="M1046.1,1097.35l-62.25,115.89"/><path class="cls-1" d="M1360,719.13a57.25,57.25,0,1,1-28.13,7.43,57.37,57.37,0,0,1,28.13-7.43h0m0-9a66.24,66.24,0,1,0,57.71,33.63A66,66,0,0,0,1360,710.13Z"/><path class="cls-6" d="M1251.2,720.18c25.23,15.07,56.68,14.93,81.22-.39,35.52-22.18,36.28-63.53,36.28-66.09"/><path class="cls-6" d="M1871.41,695.58c0-31.76-.41-57-.8-73.43-.74-32-1.5-41.93,4-55.88,7.1-18,26.17-46.52,47.89-43.1,18.35,2.89,36.28,28.2,28.73,43.1-5.65,11.16-25.78,16.91-47.09,8.78"/><path class="cls-6" d="M1869,695.53c0-31.76.42-57,.8-73.43.75-32,1.51-41.93-4-55.87-7.11-18-26.17-46.53-47.89-43.1-18.35,2.89-36.28,28.19-28.73,43.1,5.65,11.15,25.78,16.91,47.09,8.78"/><path class="cls-6" d="M2295.05,778.86a90.83,90.83,0,0,0,82-138.34"/><path class="cls-6" d="M2492,708.73a90.82,90.82,0,0,0-82,138.33"/><path class="cls-6" d="M2335.35,704.14l116.28,68.62"/></svg>
