<svg id="Layer_1" data-name="Layer 1" xmlns="http://www.w3.org/2000/svg" viewBox="0 0 550 550"><defs><style>.cls-1{fill:#d9c1d8;}.cls-2{fill:none;stroke:#fff;stroke-miterlimit:10;stroke-width:9px;}</style></defs><title>Løve</title><rect class="cls-1" y="0.03" width="550" height="550"/><path class="cls-2" d="M368.5,334c0,2.18-.25,16.66-13,24.25-15.07,9-31.37,2.45-33,1.68-17.5-8.25-21.95-29.59-24-39.39-5.24-25.14,3.35-34.65,8-71.85,4.25-34,9.37-66.61-9-78.62-12.41-8.11-33.71-8-46,0-16.21,10.52-11.69,38.48-7,77.78,4.1,34.42,10.84,47.92,5,73.69-4.27,18.85-11.44,27.36-16,31.7-2.41,2.28-21.83,20.74-42,12.54-15.33-6.23-26.55-26-20-41s27.5-16.9,39-15.26c19.5,2.78,30.11,18.25,32,21.11"/></svg>
