<svg id="Layer_1" data-name="Layer 1" xmlns="http://www.w3.org/2000/svg" viewBox="0 0 549 550"><defs><style>.cls-1{fill:#44719c;}.cls-2{fill:none;}.cls-2,.cls-3{stroke:#fff;stroke-miterlimit:10;stroke-width:9px;}.cls-3{fill:#fff;}</style></defs><title>Skorpion</title><rect class="cls-1" x="-0.5" y="-0.5" width="550" height="550"/><path class="cls-2" d="M208.93,185.12a19.52,19.52,0,0,1,19-6c10.4,2.47,13.82,12.46,14,13q-.5,81.5-1,163"/><path class="cls-2" d="M241.11,185a19.51,19.51,0,0,1,19-6c10.41,2.47,13.83,12.45,14,13q-.5,81.5-1,163"/><path class="cls-2" d="M274.11,185a19.51,19.51,0,0,1,19-6c10.41,2.47,13.83,12.45,14,13q-.5,81.5-1,163"/><path class="cls-2" d="M306,353c0,.44-.3,8.55,6.39,13.08A15.29,15.29,0,0,0,325,367.93"/><polygon class="cls-3" points="324.5 359.6 324.5 374.5 335 367.05 324.5 359.6"/></svg>
