<svg id="Layer_1" data-name="Layer 1" xmlns="http://www.w3.org/2000/svg" viewBox="0 0 600 600"><defs><style>.cls-1{fill:#8e76a6;}.cls-2{fill:none;stroke:#fff;stroke-miterlimit:10;stroke-width:9px;}</style></defs><title>Vandmand</title><rect class="cls-1" x="0.5" y="-0.5" width="600" height="600"/><path class="cls-2" d="M159.5,263.5c12-32,21.1-38.32,27.21-38,13.81.72,17.75,33.65,33.35,35,16.42,1.42,23.34-34.29,41.25-34,17.45.28,22.73,34.37,39.5,34s21.64-34.2,37.74-34c15.79.19,20.45,32.83,36,33,16.26.18,22.33-35.45,38.62-36,7.09-.24,17.14,6.13,29.84,36"/><path class="cls-2" d="M159.06,351.49c12-32,21.13-38.31,27.25-38,13.83.73,17.78,33.65,33.4,35,16.45,1.43,23.38-34.29,41.32-34,17.48.29,22.76,34.38,39.56,34s21.67-34.19,37.8-34c15.81.2,20.48,32.83,36,33,16.29.19,22.37-35.44,38.68-36,7.1-.24,17.17,6.13,29.89,36"/></svg>
