<svg id="Layer_1" data-name="Layer 1" xmlns="http://www.w3.org/2000/svg" viewBox="0 0 550 550"><defs><style>.cls-1{fill:#d9c1d8;}.cls-2{fill:none;stroke:#fff;stroke-miterlimit:10;stroke-width:9px;}</style></defs><title>Vædder</title><rect class="cls-1" y="-0.47" width="550" height="550"/><path class="cls-2" d="M278,387c0-39.79-.52-71.45-1-92-.93-40.09-1.89-52.53,5-70,8.91-22.58,32.79-58.29,60-54,23,3.62,45.46,35.32,36,54-7.08,14-32.3,21.18-59,11"/><path class="cls-2" d="M275,386.94c0-39.79.52-71.45,1-92,.93-40.08,1.89-52.53-5-70-8.91-22.58-32.79-58.29-60-54-23,3.62-45.46,35.33-36,54,7.08,14,32.3,21.19,59,11"/></svg>
